<svg width="120" height="30" viewBox="0 0 120 30" fill="none" xmlns="http://www.w3.org/2000/svg">
<path d="M33.561 18.7969H37.6989V21.2354H30.4022V8.26741H33.561V18.7969ZM45.3386 21.3647C44.1194 21.3647 42.9987 21.0814 41.9765 20.5149C40.9667 19.9484 40.16 19.1602 39.5566 18.1504C38.9655 17.1282 38.6699 15.9829 38.6699 14.7144C38.6699 13.446 38.9655 12.3068 39.5566 11.297C40.16 10.2871 40.9667 9.49894 41.9765 8.93244C42.9987 8.36594 44.1194 8.08269 45.3386 8.08269C46.5578 8.08269 47.6723 8.36594 48.6822 8.93244C49.7044 9.49894 50.5048 10.2871 51.0837 11.297C51.6748 12.3068 51.9704 13.446 51.9704 14.7144C51.9704 15.9829 51.6748 17.1282 51.0837 18.1504C50.4925 19.1602 49.692 19.9484 48.6822 20.5149C47.6723 21.0814 46.5578 21.3647 45.3386 21.3647ZM45.3386 18.4829C46.3731 18.4829 47.1982 18.1381 47.814 17.4484C48.442 16.7588 48.7561 15.8474 48.7561 14.7144C48.7561 13.5691 48.442 12.6578 47.814 11.9805C47.1982 11.2908 46.3731 10.946 45.3386 10.946C44.2918 10.946 43.4544 11.2846 42.8263 11.962C42.2105 12.6393 41.9027 13.5568 41.9027 14.7144C41.9027 15.8598 42.2105 16.7772 42.8263 17.4669C43.4544 18.1442 44.2918 18.4829 45.3386 18.4829ZM64.9592 8.26741V21.2354H61.8004V15.8967H56.8866V21.2354H53.7277V8.26741H56.8866V13.3474H61.8004V8.26741H64.9592ZM66.7039 14.7329C66.7039 13.4521 66.981 12.313 67.5352 11.3154C68.0894 10.3056 68.8591 9.52357 69.8443 8.96938C70.8418 8.40288 71.9687 8.11963 73.2248 8.11963C74.7642 8.11963 76.0819 8.52603 77.178 9.33884C78.2741 10.1516 79.0068 11.26 79.3763 12.664H75.9034C75.6447 12.1221 75.2753 11.7095 74.795 11.4263C74.327 11.143 73.7913 11.0014 73.1879 11.0014C72.215 11.0014 71.4268 11.3401 70.8233 12.0174C70.2199 12.6947 69.9182 13.5999 69.9182 14.7329C69.9182 15.8659 70.2199 16.7711 70.8233 17.4484C71.4268 18.1258 72.215 18.4644 73.1879 18.4644C73.7913 18.4644 74.327 18.3228 74.795 18.0395C75.2753 17.7563 75.6447 17.3437 75.9034 16.8019H79.3763C79.0068 18.2058 78.2741 19.3142 77.178 20.127C76.0819 20.9275 74.7642 21.3277 73.2248 21.3277C71.9687 21.3277 70.8418 21.0506 69.8443 20.4964C68.8591 19.9299 68.0894 19.1479 67.5352 18.1504C66.981 17.1529 66.7039 16.0137 66.7039 14.7329ZM92.5422 8.26741V21.2354H89.3833V15.8967H84.4696V21.2354H81.3107V8.26741H84.4696V13.3474H89.3833V8.26741H92.5422ZM102.895 18.9447H98.0553L97.2795 21.2354H93.9728L98.6649 8.26741H102.323L107.015 21.2354H103.671L102.895 18.9447ZM102.082 16.5063L100.475 11.7588L98.8866 16.5063H102.082ZM116.294 14.5851C117.045 14.7452 117.648 15.1208 118.104 15.712C118.56 16.2908 118.788 16.9558 118.788 17.707C118.788 18.7908 118.406 19.6528 117.642 20.2932C116.891 20.9213 115.838 21.2354 114.483 21.2354H108.443V8.26741H114.28C115.598 8.26741 116.626 8.56914 117.365 9.17258C118.116 9.77603 118.492 10.595 118.492 11.6295C118.492 12.393 118.289 13.0273 117.882 13.5322C117.488 14.0371 116.959 14.3881 116.294 14.5851ZM111.602 13.5137H113.671C114.188 13.5137 114.582 13.4029 114.853 13.1812C115.136 12.9472 115.278 12.6085 115.278 12.1652C115.278 11.7218 115.136 11.3832 114.853 11.1492C114.582 10.9152 114.188 10.7982 113.671 10.7982H111.602V13.5137ZM113.929 18.6861C114.459 18.6861 114.865 18.5691 115.148 18.3351C115.444 18.0888 115.592 17.7378 115.592 17.2822C115.592 16.8265 115.438 16.4694 115.13 16.2107C114.834 15.9521 114.422 15.8228 113.892 15.8228H111.602V18.6861H113.929Z" fill="white"/>
<g clip-path="url(#clip0_2009_4146)">
<path d="M20.9386 16.7784L25.5825 8.62727L22.9014 7.05859L16.7095 17.9267L23.4124 21.8484L24.9604 19.1314L20.9386 16.7784Z" fill="#FF9933"/>
<path d="M16.5574 8.78159L8.51399 4.07555L6.96603 6.79258L17.6906 13.0673L21.5605 6.27472L18.8794 4.70604L16.5574 8.78159Z" fill="#FF9933"/>
<path d="M13.0463 21.2183L21.0897 25.9244L22.6377 23.2073L11.9131 16.9326L8.04318 23.7252L10.7243 25.2939L13.0463 21.2183Z" fill="#FF9933"/>
<path d="M8.66615 13.2214L4.02226 21.3725L6.70341 22.9412L12.8953 12.0731L6.19238 8.15137L4.64442 10.8684L8.66615 13.2214Z" fill="#FF9933"/>
<path d="M16.9165 14.4261L14.2354 12.8574L12.6874 15.5745L15.3685 17.1431L16.9165 14.4261Z" fill="#D10012"/>
</g>
<defs>
<clipPath id="clip0_2009_4146">
<rect width="21.7444" height="21.8894" fill="white" transform="matrix(0.863123 0.504993 -0.495023 0.86888 10.8359 0)"/>
</clipPath>
</defs>
</svg>
