<svg width="549" height="136" viewBox="0 0 549 136" fill="none" xmlns="http://www.w3.org/2000/svg">
<path d="M154.105 86.1608H173.058V97.3301H139.635V37.9301H154.105V86.1608ZM208.052 97.9224C202.468 97.9224 197.334 96.6249 192.652 94.0301C188.027 91.4352 184.332 87.8249 181.568 83.1993C178.86 78.5173 177.506 73.2711 177.506 67.4608C177.506 61.6506 178.86 56.4326 181.568 51.807C184.332 47.1814 188.027 43.5711 192.652 40.9762C197.334 38.3814 202.468 37.0839 208.052 37.0839C213.637 37.0839 218.742 38.3814 223.368 40.9762C228.05 43.5711 231.716 47.1814 234.368 51.807C237.075 56.4326 238.429 61.6506 238.429 67.4608C238.429 73.2711 237.075 78.5173 234.368 83.1993C231.66 87.8249 227.993 91.4352 223.368 94.0301C218.742 96.6249 213.637 97.9224 208.052 97.9224ZM208.052 84.7224C212.791 84.7224 216.57 83.1429 219.391 79.9839C222.268 76.8249 223.706 72.6506 223.706 67.4608C223.706 62.2147 222.268 58.0403 219.391 54.9378C216.57 51.7788 212.791 50.1993 208.052 50.1993C203.257 50.1993 199.421 51.7506 196.544 54.8532C193.724 57.9557 192.314 62.1583 192.314 67.4608C192.314 72.707 193.724 76.9096 196.544 80.0685C199.421 83.1711 203.257 84.7224 208.052 84.7224ZM297.925 37.9301V97.3301H283.456V72.8762H260.948V97.3301H246.479V37.9301H260.948V61.1993H283.456V37.9301H297.925ZM305.916 67.5455C305.916 61.6788 307.186 56.4608 309.724 51.8916C312.263 47.266 315.788 43.6839 320.301 41.1455C324.87 38.5506 330.032 37.2532 335.786 37.2532C342.837 37.2532 348.873 39.1147 353.893 42.8378C358.914 46.5608 362.27 51.6378 363.963 58.0685H348.055C346.87 55.5865 345.178 53.6967 342.978 52.3993C340.834 51.1019 338.381 50.4532 335.616 50.4532C331.16 50.4532 327.55 52.0044 324.786 55.107C322.022 58.2096 320.64 62.3557 320.64 67.5455C320.64 72.7352 322.022 76.8814 324.786 79.9839C327.55 83.0865 331.16 84.6378 335.616 84.6378C338.381 84.6378 340.834 83.9891 342.978 82.6916C345.178 81.3942 346.87 79.5044 348.055 77.0224H363.963C362.27 83.4532 358.914 88.5301 353.893 92.2532C348.873 95.9198 342.837 97.7532 335.786 97.7532C330.032 97.7532 324.87 96.4839 320.301 93.9455C315.788 91.3506 312.263 87.7685 309.724 83.1993C307.186 78.6301 305.916 73.4121 305.916 67.5455ZM424.27 37.9301V97.3301H409.8V72.8762H387.293V97.3301H372.823V37.9301H387.293V61.1993H409.8V37.9301H424.27ZM471.692 86.8378H449.523L445.969 97.3301H430.823L452.315 37.9301H469.069L490.561 97.3301H475.246L471.692 86.8378ZM467.969 75.6685L460.607 53.9224L453.33 75.6685H467.969ZM533.064 66.8685C536.505 67.6019 539.269 69.3224 541.356 72.0301C543.443 74.6814 544.487 77.7275 544.487 81.1685C544.487 86.1326 542.738 90.0814 539.241 93.0147C535.8 95.8916 530.977 97.3301 524.771 97.3301H497.102V37.9301H523.841C529.877 37.9301 534.587 39.3121 537.971 42.0762C541.413 44.8403 543.133 48.5916 543.133 53.3301C543.133 56.8275 542.202 59.7326 540.341 62.0455C538.536 64.3583 536.11 65.966 533.064 66.8685ZM511.571 61.9608H521.048C523.418 61.9608 525.223 61.4532 526.464 60.4378C527.761 59.366 528.41 57.8147 528.41 55.7839C528.41 53.7532 527.761 52.2019 526.464 51.1301C525.223 50.0583 523.418 49.5224 521.048 49.5224H511.571V61.9608ZM522.233 85.6532C524.659 85.6532 526.52 85.1173 527.818 84.0455C529.171 82.9173 529.848 81.3096 529.848 79.2224C529.848 77.1352 529.143 75.4993 527.733 74.3147C526.379 73.1301 524.489 72.5378 522.064 72.5378H511.571V85.6532H522.233Z" fill="#041125"/>
<g clip-path="url(#clip0_906_29996)">
<path d="M96.179 76.0555L117.511 39.1081L105.195 31.9976L76.7527 81.2608L107.542 99.0371L114.653 86.7213L96.179 76.0555Z" fill="#FF9933"/>
<path d="M76.0553 39.8053L39.1079 18.4737L31.9973 30.7895L81.2606 59.2317L99.0369 28.4421L86.7211 21.3316L76.0553 39.8053Z" fill="#FF9933"/>
<path d="M59.9292 96.1793L96.8766 117.511L103.987 105.195L54.7239 76.7529L36.9475 107.542L49.2633 114.653L59.9292 96.1793Z" fill="#FF9933"/>
<path d="M39.8053 59.9289L18.4737 96.8763L30.7895 103.987L59.2317 54.7236L28.4421 36.9473L21.3316 49.2631L39.8053 59.9289Z" fill="#FF9933"/>
<path d="M77.7055 65.3898L65.3896 58.2793L58.2791 70.5951L70.5949 77.7056L77.7055 65.3898Z" fill="#D10012"/>
</g>
<defs>
<clipPath id="clip0_906_29996">
<rect width="99.5475" height="99.5475" fill="white" transform="translate(49.7737) rotate(30)"/>
</clipPath>
</defs>
</svg>
