<svg width="136" height="136" viewBox="0 0 136 136" fill="none" xmlns="http://www.w3.org/2000/svg">
<g clip-path="url(#clip0_906_29998)">
<path d="M96.179 76.0555L117.511 39.1081L105.195 31.9976L76.7527 81.2608L107.542 99.0371L114.653 86.7213L96.179 76.0555Z" fill="#FF9933"/>
<path d="M76.0553 39.8053L39.1079 18.4737L31.9973 30.7895L81.2606 59.2317L99.0369 28.4421L86.7211 21.3316L76.0553 39.8053Z" fill="#FF9933"/>
<path d="M59.9292 96.1793L96.8766 117.511L103.987 105.195L54.7239 76.7529L36.9475 107.542L49.2633 114.653L59.9292 96.1793Z" fill="#FF9933"/>
<path d="M39.8053 59.9289L18.4737 96.8763L30.7895 103.987L59.2317 54.7236L28.4421 36.9473L21.3316 49.2631L39.8053 59.9289Z" fill="#FF9933"/>
<path d="M77.7055 65.3898L65.3896 58.2793L58.2791 70.5951L70.5949 77.7056L77.7055 65.3898Z" fill="#D10012"/>
</g>
<defs>
<clipPath id="clip0_906_29998">
<rect width="99.5475" height="99.5475" fill="white" transform="translate(49.7737) rotate(30)"/>
</clipPath>
</defs>
</svg>
